# xmcd
#
# Track frame offsets:
#	150
#	16010
#	30660
#	46680
#	63102
#	79510
#	92857
#	111065
#	126580
#	146085
#	161275
#	178125
#	193990
#	208247
#	225250
#
# Disc length: 3202
#
# Revision: 1
# Processed by: cddbd v1.5.1PL0 Copyright (c) Steve Scherf et al.
# Submitted via: VisiTrax 2.9.5.180 - For more info visit www.synapsa.com
# Normalized: r0:DSETVAR1
#
DISCID=c20c800f
DTITLE=Various Artist - CDX 102 February 1995
DYEAR=1995
DGENRE=
TTITLE0=Kathy Mattea - Clown in your rodeo
TTITLE1=Mark Chesnutt - Gonna get a life
TTITLE2=Wesley Dennis - I don't know ( but I've been told)
TTITLE3=Lisa Brokop - One of those nights
TTITLE4=David Lee Murphy - Party crowd
TTITLE5=Aaron Tippin - She feels like a brand new man tonight
TTITLE6=Alan Jackson - Song for the life
TTITLE7=John Berry - Standing on the edge of goodbye
TTITLE8=Tracy Byrd - The keeper of the stars
TTITLE9=Marilyn Martin - Through his eyes
TTITLE10=Ty Herndon - What mattered most
TTITLE11=Clinton Gregory - You don't miss a thing
TTITLE12=Doug Spartz - Colors and numbers
TTITLE13=Mark Chesnutt - Gonna get a life (remix)
TTITLE14=David Lee Murphy - Party crowd (remix)
EXTD=
EXTT0=
EXTT1=
EXTT2=
EXTT3=
EXTT4=
EXTT5=
EXTT6=
EXTT7=
EXTT8=
EXTT9=
EXTT10=
EXTT11=
EXTT12=
EXTT13=
EXTT14=
PLAYORDER=
